<svg width="17" height="20" viewBox="0 0 17 20" fill="none" xmlns="http://www.w3.org/2000/svg">
<path d="M12.4582 0C15.3756 0 17 1.72335 17 4.67628V14.6775C17 17.6789 15.3756 19.3635 12.4582 19.3635H4.54278C1.67167 19.3635 0 17.6789 0 14.6775V4.67628C0 1.72335 1.67167 0 4.54278 0H12.4582ZM4.79778 13.3027C4.51444 13.2737 4.24056 13.4092 4.08944 13.6609C3.93833 13.903 3.93833 14.2225 4.08944 14.4742C4.24056 14.7162 4.51444 14.8615 4.79778 14.8227H12.2022C12.5791 14.784 12.8633 14.4539 12.8633 14.0676C12.8633 13.6706 12.5791 13.3414 12.2022 13.3027H4.79778ZM12.2022 8.88687H4.79778C4.39072 8.88687 4.06111 9.2267 4.06111 9.64301C4.06111 10.0593 4.39072 10.3982 4.79778 10.3982H12.2022C12.6083 10.3982 12.9389 10.0593 12.9389 9.64301C12.9389 9.2267 12.6083 8.88687 12.2022 8.88687ZM7.62072 4.50201H4.79778V4.51169C4.39072 4.51169 4.06111 4.85055 4.06111 5.26687C4.06111 5.68318 4.39072 6.02204 4.79778 6.02204H7.62072C8.02778 6.02204 8.35833 5.68318 8.35833 5.25622C8.35833 4.84087 8.02778 4.50201 7.62072 4.50201Z" fill="#BDBDBD"/>
</svg>
